<?xml version="1.0" encoding="UTF-8"?>
<svg width="180px" height="50px" viewBox="0 0 180 50" version="1.1" xmlns="http://www.w3.org/2000/svg" xmlns:xlink="http://www.w3.org/1999/xlink">
    <!-- Generator: Sketch 54.1 (76490) - https://sketchapp.com -->
    <title>Android</title>
    <desc>Created with Sketch.</desc>
    <defs>
        <linearGradient x1="19.2147947%" y1="0.750753345%" x2="69.3023416%" y2="75.1787642%" id="linearGradient-1">
            <stop stop-color="#19A3B4" offset="0%"></stop>
            <stop stop-color="#5BC3AF" offset="34.816763%"></stop>
            <stop stop-color="#C8F7A6" offset="92.2336229%"></stop>
            <stop stop-color="#D7FEA5" offset="100%"></stop>
        </linearGradient>
        <path d="M16.5569279,8.1353404 L2.13152906,0.243259753 C1.72250407,0.020597062 1.34525457,-0.0312006034 1.03966895,0.0636496669 L12.8554207,11.8190289 L16.5569279,8.1353404" id="path-2"></path>
        <linearGradient x1="-14.698314%" y1="-51.5707928%" x2="74.8444046%" y2="89.6564414%" id="linearGradient-4">
            <stop stop-color="#FC227C" offset="0%"></stop>
            <stop stop-color="#FEEB7B" offset="100%"></stop>
        </linearGradient>
        <linearGradient x1="43.7972131%" y1="-14.8137139%" x2="49.4855476%" y2="82.8944571%" id="linearGradient-5">
            <stop stop-color="#0E4DA0" offset="0%"></stop>
            <stop stop-color="#6BFED4" offset="100%"></stop>
        </linearGradient>
        <path d="M1.03899288,0.0636496669 C0.600220611,0.200207148 0.316269375,0.642169046 0.316269375,1.31082982 L0.318973673,22.3554813 C0.318973673,23.0167424 0.594135941,23.4519773 1.02006279,23.5972799 L12.8554207,11.821047 L1.03899288,0.0636496669" id="path-6"></path>
        <linearGradient x1="132.244588%" y1="30.6068598%" x2="5.95853392%" y2="94.1309146%" id="linearGradient-8">
            <stop stop-color="#FC472E" offset="0%"></stop>
            <stop stop-color="#FC472F" offset="0.331892433%"></stop>
            <stop stop-color="#893CD8" offset="100%"></stop>
        </linearGradient>
        <path d="M1.02006279,23.5972799 C1.32767663,23.7008752 1.71236295,23.652441 2.13152906,23.4237241 L16.5738298,15.5208802 L12.8554207,11.821047 L1.02006279,23.5972799" id="path-9"></path>
    </defs>
    <g id="Android" stroke="none" stroke-width="1" fill="none" fill-rule="evenodd">
        <g id="Button---Play-Store">
            <rect id="Button" fill="#252525" x="0" y="0" width="180" height="50" rx="5.45454554"></rect>
            <g id="Group-6" transform="translate(17.000000, 13.000000)">
                <g id="Icon---Google-Play">
                    <mask id="mask-3" fill="white">
                        <use xlink:href="#path-2"></use>
                    </mask>
                    <use id="Fill-1" fill="url(#linearGradient-1)" xlink:href="#path-2"></use>
                    <path d="M16.575858,15.5208802 L21.5003837,12.826729 C22.4989455,12.2784809 22.4989455,11.3864848 21.5003837,10.8395822 L16.557604,8.1353404 L12.8554207,11.8190289 L16.575858,15.5208802" id="Fill-2" fill="url(#linearGradient-4)"></path>
                    <mask id="mask-7" fill="white">
                        <use xlink:href="#path-6"></use>
                    </mask>
                    <use id="Fill-3" fill="url(#linearGradient-5)" xlink:href="#path-6"></use>
                    <mask id="mask-10" fill="white">
                        <use xlink:href="#path-9"></use>
                    </mask>
                    <use id="Fill-4" fill="url(#linearGradient-8)" xlink:href="#path-9"></use>
                </g>
                <path d="M38.5612728,9.01423388 C40.7943637,9.01423388 42.196788,7.41506502 42.196788,5.41610395 C42.196788,3.43875327 40.7943637,1.80716883 38.5612728,1.80716883 L36.2634546,1.80716883 L36.2634546,9.01423388 L38.5612728,9.01423388 Z M38.5612728,8.45236374 L36.8783637,8.45236374 L36.8783637,2.36903897 L38.5612728,2.36903897 C40.4707273,2.36903897 41.5495152,3.73049354 41.5495152,5.41610395 C41.5495152,7.10171437 40.4599395,8.45236374 38.5612728,8.45236374 L38.5612728,8.45236374 Z M46.9542426,9.14389621 C49.057879,9.14389621 50.4495154,7.52311697 50.4495154,5.41610395 C50.4495154,3.30909093 49.057879,1.68831169 46.9542426,1.68831169 C44.8398183,1.68831169 43.4589698,3.30909093 43.4589698,5.41610395 C43.4589698,7.52311697 44.8398183,9.14389621 46.9542426,9.14389621 L46.9542426,9.14389621 Z M46.9542426,8.58202608 C45.2173941,8.58202608 44.1062425,7.23137671 44.1062425,5.41610395 C44.1062425,3.590026 45.2173941,2.25018183 46.9542426,2.25018183 C48.6803032,2.25018183 49.8022426,3.590026 49.8022426,5.41610395 C49.8022426,7.23137671 48.6803032,8.58202608 46.9542426,8.58202608 L46.9542426,8.58202608 Z M58.1736367,9.01423388 L60.2233337,1.80716883 L59.5329094,1.80716883 L57.7960609,8.14981828 L56.0376367,1.80716883 L55.476667,1.80716883 L53.7074548,8.14981828 L51.9706063,1.80716883 L51.280182,1.80716883 L53.3406669,9.01423388 L54.0310912,9.01423388 L55.7571518,2.82285716 L57.4832124,9.01423388 L58.1736367,9.01423388 Z M67.0736368,9.01423388 L67.0736368,1.80716883 L66.4587277,1.80716883 L66.4587277,7.91210399 L61.9493943,1.80716883 L61.3236974,1.80716883 L61.3236974,9.01423388 L61.9386065,9.01423388 L61.9386065,2.82285716 L66.4695156,9.01423388 L67.0736368,9.01423388 Z M72.8235763,9.01423388 L72.8235763,8.45236374 L69.3390914,8.45236374 L69.3390914,1.80716883 L68.7133944,1.80716883 L68.7133944,9.01423388 L72.8235763,9.01423388 Z M77.311334,9.14389621 C79.4149703,9.14389621 80.8066067,7.52311697 80.8066067,5.41610395 C80.8066067,3.30909093 79.4149703,1.68831169 77.311334,1.68831169 C75.1969097,1.68831169 73.8160612,3.30909093 73.8160612,5.41610395 C73.8160612,7.52311697 75.1969097,9.14389621 77.311334,9.14389621 L77.311334,9.14389621 Z M77.311334,8.58202608 C75.5744854,8.58202608 74.4633339,7.23137671 74.4633339,5.41610395 C74.4633339,3.590026 75.5744854,2.25018183 77.311334,2.25018183 C79.0373946,2.25018183 80.159334,3.590026 80.159334,5.41610395 C80.159334,7.23137671 79.0373946,8.58202608 77.311334,8.58202608 L77.311334,8.58202608 Z M88.2502432,9.01423388 L85.3051523,1.80716883 L84.5392128,1.80716883 L81.5941219,9.01423388 L82.3061219,9.01423388 L83.0181219,7.2421819 L86.8262432,7.2421819 L87.5382432,9.01423388 L88.2502432,9.01423388 Z M86.6212735,6.68031176 L83.2230916,6.68031176 L84.9275765,2.46628573 L86.6212735,6.68031176 Z M91.6052736,9.01423388 C93.8383645,9.01423388 95.2407888,7.41506502 95.2407888,5.41610395 C95.2407888,3.43875327 93.8383645,1.80716883 91.6052736,1.80716883 L89.3074553,1.80716883 L89.3074553,9.01423388 L91.6052736,9.01423388 Z M91.6052736,8.45236374 L89.9223644,8.45236374 L89.9223644,2.36903897 L91.6052736,2.36903897 C93.5147281,2.36903897 94.593516,3.73049354 94.593516,5.41610395 C94.593516,7.10171437 93.5039403,8.45236374 91.6052736,8.45236374 L91.6052736,8.45236374 Z M100.181637,9.01423388 L100.181637,5.59979227 L104.054486,5.59979227 L104.054486,5.03792213 L100.181637,5.03792213 L100.181637,2.36903897 L104.130001,2.36903897 L104.130001,1.80716883 L99.5667282,1.80716883 L99.5667282,9.01423388 L100.181637,9.01423388 Z M110.376183,9.01423388 L108.294122,5.98877928 C109.37291,5.9455585 110.28988,5.22161044 110.28988,3.91418185 C110.28988,2.59594807 109.340547,1.80716883 108.09994,1.80716883 L105.413759,1.80716883 L105.413759,9.01423388 L106.028668,9.01423388 L106.028668,6.03200006 L107.614486,6.03200006 L109.631819,9.01423388 L110.376183,9.01423388 Z M108.046001,5.47012993 L106.028668,5.47012993 L106.028668,2.36903897 L108.046001,2.36903897 C109.006122,2.36903897 109.642607,3.00654547 109.642607,3.91418185 C109.642607,4.82181823 109.006122,5.47012993 108.046001,5.47012993 L108.046001,5.47012993 Z M115.047335,9.14389621 C117.150971,9.14389621 118.542607,7.52311697 118.542607,5.41610395 C118.542607,3.30909093 117.150971,1.68831169 115.047335,1.68831169 C112.93291,1.68831169 111.552062,3.30909093 111.552062,5.41610395 C111.552062,7.52311697 112.93291,9.14389621 115.047335,9.14389621 L115.047335,9.14389621 Z M115.047335,8.58202608 C113.310486,8.58202608 112.199334,7.23137671 112.199334,5.41610395 C112.199334,3.590026 113.310486,2.25018183 115.047335,2.25018183 C116.773395,2.25018183 117.895335,3.590026 117.895335,5.41610395 C117.895335,7.23137671 116.773395,8.58202608 115.047335,8.58202608 L115.047335,8.58202608 Z M126.795335,9.01423388 L126.795335,1.80716883 L125.867577,1.80716883 L123.429516,7.80405204 L120.980668,1.80716883 L120.063698,1.80716883 L120.063698,9.01423388 L120.678607,9.01423388 L120.678607,2.58514287 L123.31085,9.01423388 L123.548183,9.01423388 L126.169638,2.58514287 L126.169638,9.01423388 L126.795335,9.01423388 Z M39.5753334,21.975065 C40.8698789,21.975065 41.8947274,21.4456105 42.6283031,20.6244157 L42.6283031,17.8582858 L39.1977576,17.8582858 L39.1977576,19.1981299 L41.0964243,19.1981299 L41.0964243,20.0625455 C40.8051516,20.3326754 40.2118182,20.6136105 39.5753334,20.6136105 C38.2592122,20.6136105 37.3098788,19.6087273 37.3098788,18.2472728 C37.3098788,16.8858182 38.2592122,15.8809351 39.5753334,15.8809351 C40.3304849,15.8809351 40.945394,16.3131429 41.2798183,16.820987 L42.5420001,16.1294546 C42.0026062,15.2758442 41.0640607,14.5194805 39.5753334,14.5194805 C37.4609091,14.5194805 35.7348485,15.9673766 35.7348485,18.2472728 C35.7348485,20.5163637 37.4609091,21.975065 39.5753334,21.975065 L39.5753334,21.975065 Z M47.2670911,21.975065 C49.4354547,21.975065 51.021273,20.419117 51.021273,18.2472728 C51.021273,16.0754286 49.4354547,14.5194805 47.2670911,14.5194805 C45.0879395,14.5194805 43.5021213,16.0754286 43.5021213,18.2472728 C43.5021213,20.419117 45.0879395,21.975065 47.2670911,21.975065 L47.2670911,21.975065 Z M47.2670911,20.6136105 C45.9293941,20.6136105 45.0771517,19.587117 45.0771517,18.2472728 C45.0771517,16.8966234 45.9293941,15.8809351 47.2670911,15.8809351 C48.5940002,15.8809351 49.4462426,16.8966234 49.4462426,18.2472728 C49.4462426,19.587117 48.5940002,20.6136105 47.2670911,20.6136105 L47.2670911,20.6136105 Z M55.5198185,21.975065 C57.6881821,21.975065 59.2740004,20.419117 59.2740004,18.2472728 C59.2740004,16.0754286 57.6881821,14.5194805 55.5198185,14.5194805 C53.3406669,14.5194805 51.7548487,16.0754286 51.7548487,18.2472728 C51.7548487,20.419117 53.3406669,21.975065 55.5198185,21.975065 L55.5198185,21.975065 Z M55.5198185,20.6136105 C54.1821215,20.6136105 53.3298791,19.587117 53.3298791,18.2472728 C53.3298791,16.8966234 54.1821215,15.8809351 55.5198185,15.8809351 C56.8467276,15.8809351 57.69897,16.8966234 57.69897,18.2472728 C57.69897,19.587117 56.8467276,20.6136105 55.5198185,20.6136105 L55.5198185,20.6136105 Z M63.848061,21.975065 C65.1426065,21.975065 66.167455,21.4456105 66.9010308,20.6244157 L66.9010308,17.8582858 L63.4704853,17.8582858 L63.4704853,19.1981299 L65.369152,19.1981299 L65.369152,20.0625455 C65.0778792,20.3326754 64.4845459,20.6136105 63.848061,20.6136105 C62.5319398,20.6136105 61.5826064,19.6087273 61.5826064,18.2472728 C61.5826064,16.8858182 62.5319398,15.8809351 63.848061,15.8809351 C64.6032126,15.8809351 65.2181217,16.3131429 65.5525459,16.820987 L66.8147277,16.1294546 C66.2753338,15.2758442 65.3367883,14.5194805 63.848061,14.5194805 C61.7336368,14.5194805 60.0075761,15.9673766 60.0075761,18.2472728 C60.0075761,20.5163637 61.7336368,21.975065 63.848061,21.975065 L63.848061,21.975065 Z M72.6401824,21.8454027 L72.6401824,20.4947533 L69.5980005,20.4947533 L69.5980005,14.6383377 L68.0553338,14.6383377 L68.0553338,21.8454027 L72.6401824,21.8454027 Z M78.7676976,21.8454027 L78.7676976,20.4947533 L75.2076976,20.4947533 L75.2076976,18.8523637 L78.6921825,18.8523637 L78.6921825,17.5017143 L75.2076976,17.5017143 L75.2076976,15.988987 L78.7676976,15.988987 L78.7676976,14.6383377 L73.6758187,14.6383377 L73.6758187,21.8454027 L78.7676976,21.8454027 Z M84.2695159,21.8454027 L84.2695159,19.2737663 L86.1034553,19.2737663 C87.6569099,19.2737663 88.5199402,18.2148572 88.5199402,16.9614546 C88.5199402,15.6972468 87.6676977,14.6383377 86.1034553,14.6383377 L82.7376371,14.6383377 L82.7376371,21.8454027 L84.2695159,21.8454027 Z M85.8876977,17.9231169 L84.2695159,17.9231169 L84.2695159,15.988987 L85.8876977,15.988987 C86.4918189,15.988987 86.9556977,16.3563637 86.9556977,16.9614546 C86.9556977,17.5557403 86.4918189,17.9231169 85.8876977,17.9231169 L85.8876977,17.9231169 Z M94.0001827,21.8454027 L94.0001827,20.4947533 L90.9580008,20.4947533 L90.9580008,14.6383377 L89.4153341,14.6383377 L89.4153341,21.8454027 L94.0001827,21.8454027 Z M101.74588,21.8454027 L98.9733949,14.6383377 L97.0531524,14.6383377 L94.2806675,21.8454027 L96.017516,21.8454027 L96.470607,20.6244157 L99.5559403,20.6244157 L100.009031,21.8454027 L101.74588,21.8454027 Z M99.1352131,19.2737663 L96.8913342,19.2737663 L98.0132737,16.1726753 L99.1352131,19.2737663 Z M105.953153,21.8454027 L105.953153,18.8955845 L108.704062,14.6383377 L106.967213,14.6383377 L105.187213,17.5233247 L103.407213,14.6383377 L101.659577,14.6383377 L104.421274,18.8955845 L104.421274,21.8454027 L105.953153,21.8454027 Z M114.71291,21.975065 C116.643941,21.975065 117.593274,20.9809871 117.593274,19.6627533 C117.593274,16.9722598 113.461516,17.7394286 113.461516,16.6048831 C113.461516,16.1726753 113.828304,15.8917403 114.475577,15.8917403 C115.209153,15.8917403 115.98588,16.1402598 116.568425,16.6805195 L117.420668,15.5351688 C116.708668,14.876052 115.759335,14.5302857 114.615819,14.5302857 C112.922122,14.5302857 111.886486,15.5243637 111.886486,16.7237403 C111.886486,19.4358442 116.029031,18.5606234 116.029031,19.8140261 C116.029031,20.2354287 115.62988,20.6136105 114.777638,20.6136105 C113.785153,20.6136105 112.997638,20.1597923 112.490607,19.6303377 L111.649153,20.8297144 C112.328789,21.5104417 113.321274,21.975065 114.71291,21.975065 L114.71291,21.975065 Z M121.822122,21.8454027 L121.822122,15.988987 L123.914971,15.988987 L123.914971,14.6383377 L118.175819,14.6383377 L118.175819,15.988987 L120.279456,15.988987 L120.279456,21.8454027 L121.822122,21.8454027 Z M128.316426,21.975065 C130.484789,21.975065 132.070607,20.419117 132.070607,18.2472728 C132.070607,16.0754286 130.484789,14.5194805 128.316426,14.5194805 C126.137274,14.5194805 124.551456,16.0754286 124.551456,18.2472728 C124.551456,20.419117 126.137274,21.975065 128.316426,21.975065 L128.316426,21.975065 Z M128.316426,20.6136105 C126.978729,20.6136105 126.126486,19.587117 126.126486,18.2472728 C126.126486,16.8966234 126.978729,15.8809351 128.316426,15.8809351 C129.643335,15.8809351 130.495577,16.8966234 130.495577,18.2472728 C130.495577,19.587117 129.643335,20.6136105 128.316426,20.6136105 L128.316426,20.6136105 Z M138.985638,21.8454027 L137.356668,19.1008832 C138.133395,18.9171949 138.942486,18.2256624 138.942486,16.9614546 C138.942486,15.6216104 138.014729,14.6383377 136.515214,14.6383377 L133.149395,14.6383377 L133.149395,21.8454027 L134.681274,21.8454027 L134.681274,19.2845715 L135.803214,19.2845715 L137.216426,21.8454027 L138.985638,21.8454027 Z M136.299456,17.9339221 L134.681274,17.9339221 L134.681274,15.988987 L136.299456,15.988987 C136.903577,15.988987 137.367456,16.3563637 137.367456,16.9506494 C137.367456,17.5665455 136.903577,17.9339221 136.299456,17.9339221 L136.299456,17.9339221 Z M145.17788,21.8454027 L145.17788,20.4947533 L141.61788,20.4947533 L141.61788,18.8523637 L145.102365,18.8523637 L145.102365,17.5017143 L141.61788,17.5017143 L141.61788,15.988987 L145.17788,15.988987 L145.17788,14.6383377 L140.086002,14.6383377 L140.086002,21.8454027 L145.17788,21.8454027 Z" id="DOWNLOAD-FROM" fill="#FFFFFF"></path>
            </g>
        </g>
    </g>
</svg>