<?xml version="1.0" encoding="UTF-8"?>
<svg width="180px" height="50px" viewBox="0 0 180 50" version="1.1" xmlns="http://www.w3.org/2000/svg" xmlns:xlink="http://www.w3.org/1999/xlink">
    <!-- Generator: Sketch 54.1 (76490) - https://sketchapp.com -->
    <title>Apple</title>
    <desc>Created with Sketch.</desc>
    <g id="Apple" stroke="none" stroke-width="1" fill="none" fill-rule="evenodd">
        <g id="Button---App-Store">
            <rect id="Button" fill="#252525" x="0" y="0" width="180" height="50" rx="5.45454554"></rect>
            <g id="Group-2" transform="translate(26.000000, 14.000000)" fill="#FFFFFF">
                <path d="M37.6227273,8.00124686 C39.8558183,8.00124686 41.2582425,6.40207801 41.2582425,4.40311694 C41.2582425,2.42576626 39.8558183,0.79418182 37.6227273,0.79418182 L35.3249091,0.79418182 L35.3249091,8.00124686 L37.6227273,8.00124686 Z M37.6227273,7.43937672 L35.9398182,7.43937672 L35.9398182,1.35605196 L37.6227273,1.35605196 C39.5321819,1.35605196 40.6109698,2.71750652 40.6109698,4.40311694 C40.6109698,6.08872735 39.521394,7.43937672 37.6227273,7.43937672 L37.6227273,7.43937672 Z M46.0156971,8.1309092 C48.1193335,8.1309092 49.5109699,6.51012996 49.5109699,4.40311694 C49.5109699,2.29610392 48.1193335,0.675324675 46.0156971,0.675324675 C43.9012729,0.675324675 42.5204244,2.29610392 42.5204244,4.40311694 C42.5204244,6.51012996 43.9012729,8.1309092 46.0156971,8.1309092 L46.0156971,8.1309092 Z M46.0156971,7.56903906 C44.2788486,7.56903906 43.1676971,6.21838969 43.1676971,4.40311694 C43.1676971,2.57703899 44.2788486,1.23719481 46.0156971,1.23719481 C47.7417578,1.23719481 48.8636972,2.57703899 48.8636972,4.40311694 C48.8636972,6.21838969 47.7417578,7.56903906 46.0156971,7.56903906 L46.0156971,7.56903906 Z M57.2350912,8.00124686 L59.2847882,0.79418182 L58.594364,0.79418182 L56.8575155,7.13683127 L55.0990912,0.79418182 L54.5381215,0.79418182 L52.7689094,7.13683127 L51.0320609,0.79418182 L50.3416366,0.79418182 L52.4021215,8.00124686 L53.0925457,8.00124686 L54.8186064,1.80987015 L56.544667,8.00124686 L57.2350912,8.00124686 Z M66.1350914,8.00124686 L66.1350914,0.79418182 L65.5201823,0.79418182 L65.5201823,6.89911698 L61.0108489,0.79418182 L60.3851519,0.79418182 L60.3851519,8.00124686 L61.000061,8.00124686 L61.000061,1.80987015 L65.5309702,8.00124686 L66.1350914,8.00124686 Z M71.8850309,8.00124686 L71.8850309,7.43937672 L68.400546,7.43937672 L68.400546,0.79418182 L67.774849,0.79418182 L67.774849,8.00124686 L71.8850309,8.00124686 Z M76.3727885,8.1309092 C78.4764249,8.1309092 79.8680613,6.51012996 79.8680613,4.40311694 C79.8680613,2.29610392 78.4764249,0.675324675 76.3727885,0.675324675 C74.2583642,0.675324675 72.8775157,2.29610392 72.8775157,4.40311694 C72.8775157,6.51012996 74.2583642,8.1309092 76.3727885,8.1309092 L76.3727885,8.1309092 Z M76.3727885,7.56903906 C74.63594,7.56903906 73.5247885,6.21838969 73.5247885,4.40311694 C73.5247885,2.57703899 74.63594,1.23719481 76.3727885,1.23719481 C78.0988491,1.23719481 79.2207885,2.57703899 79.2207885,4.40311694 C79.2207885,6.21838969 78.0988491,7.56903906 76.3727885,7.56903906 L76.3727885,7.56903906 Z M87.3116978,8.00124686 L84.3666068,0.79418182 L83.6006674,0.79418182 L80.6555764,8.00124686 L81.3675765,8.00124686 L82.0795765,6.22919489 L85.8876977,6.22919489 L86.5996977,8.00124686 L87.3116978,8.00124686 Z M85.682728,5.66732475 L82.2845462,5.66732475 L83.989031,1.45329871 L85.682728,5.66732475 Z M90.6667281,8.00124686 C92.8998191,8.00124686 94.3022433,6.40207801 94.3022433,4.40311694 C94.3022433,2.42576626 92.8998191,0.79418182 90.6667281,0.79418182 L88.3689099,0.79418182 L88.3689099,8.00124686 L90.6667281,8.00124686 Z M90.6667281,7.43937672 L88.983819,7.43937672 L88.983819,1.35605196 L90.6667281,1.35605196 C92.5761827,1.35605196 93.6549706,2.71750652 93.6549706,4.40311694 C93.6549706,6.08872735 92.5653948,7.43937672 90.6667281,7.43937672 L90.6667281,7.43937672 Z M99.2430919,8.00124686 L99.2430919,4.58680525 L103.11594,4.58680525 L103.11594,4.02493511 L99.2430919,4.02493511 L99.2430919,1.35605196 L103.191456,1.35605196 L103.191456,0.79418182 L98.6281828,0.79418182 L98.6281828,8.00124686 L99.2430919,8.00124686 Z M109.437637,8.00124686 L107.355577,4.97579227 C108.434365,4.93257149 109.351334,4.20862343 109.351334,2.90119484 C109.351334,1.58296105 108.402001,0.79418182 107.161395,0.79418182 L104.475213,0.79418182 L104.475213,8.00124686 L105.090122,8.00124686 L105.090122,5.01901305 L106.67594,5.01901305 L108.693274,8.00124686 L109.437637,8.00124686 Z M107.107456,4.45714291 L105.090122,4.45714291 L105.090122,1.35605196 L107.107456,1.35605196 C108.067577,1.35605196 108.704062,1.99355846 108.704062,2.90119484 C108.704062,3.80883122 108.067577,4.45714291 107.107456,4.45714291 L107.107456,4.45714291 Z M114.108789,8.1309092 C116.212425,8.1309092 117.604062,6.51012996 117.604062,4.40311694 C117.604062,2.29610392 116.212425,0.675324675 114.108789,0.675324675 C111.994365,0.675324675 110.613516,2.29610392 110.613516,4.40311694 C110.613516,6.51012996 111.994365,8.1309092 114.108789,8.1309092 L114.108789,8.1309092 Z M114.108789,7.56903906 C112.371941,7.56903906 111.260789,6.21838969 111.260789,4.40311694 C111.260789,2.57703899 112.371941,1.23719481 114.108789,1.23719481 C115.83485,1.23719481 116.956789,2.57703899 116.956789,4.40311694 C116.956789,6.21838969 115.83485,7.56903906 114.108789,7.56903906 L114.108789,7.56903906 Z M125.856789,8.00124686 L125.856789,0.79418182 L124.929032,0.79418182 L122.490971,6.79106503 L120.042122,0.79418182 L119.125153,0.79418182 L119.125153,8.00124686 L119.740062,8.00124686 L119.740062,1.57215586 L122.372304,8.00124686 L122.609638,8.00124686 L125.231092,1.57215586 L125.231092,8.00124686 L125.856789,8.00124686 Z M41.8515759,20.8324157 L39.079091,13.6253507 L37.1588485,13.6253507 L34.3863636,20.8324157 L36.1232121,20.8324157 L36.5763031,19.6114287 L39.6616364,19.6114287 L40.1147274,20.8324157 L41.8515759,20.8324157 Z M39.2409092,18.2607793 L36.9970303,18.2607793 L38.1189698,15.1596883 L39.2409092,18.2607793 Z M44.0523032,20.8324157 L44.0523032,18.2607793 L45.8862426,18.2607793 C47.4396972,18.2607793 48.3027275,17.2018702 48.3027275,15.9484676 C48.3027275,14.6842598 47.450485,13.6253507 45.8862426,13.6253507 L42.5204244,13.6253507 L42.5204244,20.8324157 L44.0523032,20.8324157 Z M45.670485,16.9101299 L44.0523032,16.9101299 L44.0523032,14.976 L45.670485,14.976 C46.2746062,14.976 46.738485,15.3433767 46.738485,15.9484676 C46.738485,16.5427533 46.2746062,16.9101299 45.670485,16.9101299 L45.670485,16.9101299 Z M50.7947275,20.8324157 L50.7947275,18.2607793 L52.6286669,18.2607793 C54.1821215,18.2607793 55.0451518,17.2018702 55.0451518,15.9484676 C55.0451518,14.6842598 54.1929094,13.6253507 52.6286669,13.6253507 L49.2628487,13.6253507 L49.2628487,20.8324157 L50.7947275,20.8324157 Z M52.4129094,16.9101299 L50.7947275,16.9101299 L50.7947275,14.976 L52.4129094,14.976 C53.0170306,14.976 53.4809094,15.3433767 53.4809094,15.9484676 C53.4809094,16.5427533 53.0170306,16.9101299 52.4129094,16.9101299 L52.4129094,16.9101299 Z M60.5253943,20.8324157 L60.5253943,19.4817663 L57.4832125,19.4817663 L57.4832125,13.6253507 L55.9405458,13.6253507 L55.9405458,20.8324157 L60.5253943,20.8324157 Z M66.6529096,20.8324157 L66.6529096,19.4817663 L63.0929095,19.4817663 L63.0929095,17.8393767 L66.5773944,17.8393767 L66.5773944,16.4887273 L63.0929095,16.4887273 L63.0929095,14.976 L66.6529096,14.976 L66.6529096,13.6253507 L61.5610307,13.6253507 L61.5610307,20.8324157 L66.6529096,20.8324157 Z M77.3329097,20.8324157 L74.5604248,13.6253507 L72.6401824,13.6253507 L69.8676975,20.8324157 L71.604546,20.8324157 L72.0576369,19.6114287 L75.1429703,19.6114287 L75.5960612,20.8324157 L77.3329097,20.8324157 Z M74.722243,18.2607793 L72.4783642,18.2607793 L73.6003036,15.1596883 L74.722243,18.2607793 Z M79.533637,20.8324157 L79.533637,18.2607793 L81.3675765,18.2607793 C82.921031,18.2607793 83.7840613,17.2018702 83.7840613,15.9484676 C83.7840613,14.6842598 82.9318189,13.6253507 81.3675765,13.6253507 L78.0017582,13.6253507 L78.0017582,20.8324157 L79.533637,20.8324157 Z M81.1518189,16.9101299 L79.533637,16.9101299 L79.533637,14.976 L81.1518189,14.976 C81.7559401,14.976 82.2198189,15.3433767 82.2198189,15.9484676 C82.2198189,16.5427533 81.7559401,16.9101299 81.1518189,16.9101299 L81.1518189,16.9101299 Z M86.2760614,20.8324157 L86.2760614,18.2607793 L88.1100008,18.2607793 C89.6634554,18.2607793 90.5264857,17.2018702 90.5264857,15.9484676 C90.5264857,14.6842598 89.6742432,13.6253507 88.1100008,13.6253507 L84.7441826,13.6253507 L84.7441826,20.8324157 L86.2760614,20.8324157 Z M87.8942432,16.9101299 L86.2760614,16.9101299 L86.2760614,14.976 L87.8942432,14.976 C88.4983644,14.976 88.9622432,15.3433767 88.9622432,15.9484676 C88.9622432,16.5427533 88.4983644,16.9101299 87.8942432,16.9101299 L87.8942432,16.9101299 Z M96.826607,20.962078 C98.7576373,20.962078 99.7069707,19.9680001 99.7069707,18.6497663 C99.7069707,15.9592728 95.575213,16.7264416 95.575213,15.5918961 C95.575213,15.1596883 95.9420009,14.8787533 96.5892737,14.8787533 C97.3228494,14.8787533 98.0995767,15.1272728 98.6821222,15.6675325 L99.5343646,14.5221818 C98.8223646,13.8630649 97.8730312,13.5172987 96.7295161,13.5172987 C95.0358191,13.5172987 94.0001827,14.5113766 94.0001827,15.7107533 C94.0001827,18.4228572 98.1427282,17.5476364 98.1427282,18.801039 C98.1427282,19.2224416 97.7435767,19.6006235 96.8913343,19.6006235 C95.8988494,19.6006235 95.1113342,19.1468053 94.6043039,18.6173507 L93.7628494,19.8167274 C94.4424857,20.4974546 95.4349706,20.962078 96.826607,20.962078 L96.826607,20.962078 Z M103.935819,20.8324157 L103.935819,14.976 L106.028668,14.976 L106.028668,13.6253507 L100.289516,13.6253507 L100.289516,14.976 L102.393153,14.976 L102.393153,20.8324157 L103.935819,20.8324157 Z M110.430122,20.962078 C112.598486,20.962078 114.184304,19.40613 114.184304,17.2342858 C114.184304,15.0624416 112.598486,13.5064935 110.430122,13.5064935 C108.250971,13.5064935 106.665153,15.0624416 106.665153,17.2342858 C106.665153,19.40613 108.250971,20.962078 110.430122,20.962078 L110.430122,20.962078 Z M110.430122,19.6006235 C109.092425,19.6006235 108.240183,18.5741299 108.240183,17.2342858 C108.240183,15.8836364 109.092425,14.8679481 110.430122,14.8679481 C111.757031,14.8679481 112.609274,15.8836364 112.609274,17.2342858 C112.609274,18.5741299 111.757031,19.6006235 110.430122,19.6006235 L110.430122,19.6006235 Z M121.099335,20.8324157 L119.470365,18.0878962 C120.247092,17.9042079 121.056183,17.2126754 121.056183,15.9484676 C121.056183,14.6086234 120.128426,13.6253507 118.62891,13.6253507 L115.263092,13.6253507 L115.263092,20.8324157 L116.794971,20.8324157 L116.794971,18.2715845 L117.91691,18.2715845 L119.330122,20.8324157 L121.099335,20.8324157 Z M118.413153,16.9209351 L116.794971,16.9209351 L116.794971,14.976 L118.413153,14.976 C119.017274,14.976 119.481153,15.3433767 119.481153,15.9376624 C119.481153,16.5535585 119.017274,16.9209351 118.413153,16.9209351 L118.413153,16.9209351 Z M127.291577,20.8324157 L127.291577,19.4817663 L123.731577,19.4817663 L123.731577,17.8393767 L127.216062,17.8393767 L127.216062,16.4887273 L123.731577,16.4887273 L123.731577,14.976 L127.291577,14.976 L127.291577,13.6253507 L122.199698,13.6253507 L122.199698,20.8324157 L127.291577,20.8324157 Z" id="DOWNLOAD-FROM"></path>
                <path d="M12.5124249,3.56317415 C11.7406964,4.55334145 10.4108145,5.32056243 9.12579133,5.28089226 C8.89117635,4.00430638 9.49379149,2.69082724 10.2234401,1.80538917 C11.027324,0.829899836 12.4044464,0.0813238367 13.5818881,-3.60600438e-13 C13.780378,1.33410762 13.232943,2.63885933 12.5124249,3.56317415 Z M18.8787879,16.1021197 C18.3627143,17.2450171 18.115793,17.7547787 17.451249,18.7643844 C16.5246984,20.174262 15.2182383,21.9292701 13.5997522,21.9447415 C12.1607009,21.9578326 11.7915098,21.0089223 9.8391638,21.0196332 C7.88721476,21.0307409 7.47951664,21.9610062 6.04086231,21.9479151 C4.42197922,21.9332371 3.18379962,20.3480173 2.25685209,18.9385364 C-0.335425157,14.9965122 -0.606165292,10.3701776 0.992471841,7.91062745 C2.12862766,6.16276001 3.92059389,5.14006318 5.60577259,5.14006318 C7.32191571,5.14006318 8.40050947,6.07984937 9.81891784,6.07984937 C11.1952464,6.07984937 12.0336674,5.13847637 14.0173748,5.13847637 C15.516767,5.13847637 17.1054797,5.95449165 18.2376657,7.36436929 C14.5282877,9.3954817 15.1309028,14.6870849 18.8787879,16.1021197 Z" id="Icon---Apple"></path>
            </g>
        </g>
    </g>
</svg>