<?xml version="1.0" encoding="UTF-8"?>
<svg width="30px" height="30px" viewBox="0 0 30 30" version="1.1" xmlns="http://www.w3.org/2000/svg" xmlns:xlink="http://www.w3.org/1999/xlink">
    <!-- Generator: sketchtool 54.1 (76490) - https://sketchapp.com -->
    <title>F25C3DB8-BEAB-48EB-B3B1-E585FC588D9A</title>
    <desc>Created with sketchtool.</desc>
    <g id="Additional-pages" stroke="none" stroke-width="1" fill="none" fill-rule="evenodd">
        <g id="1.0-Disclamer" transform="translate(-499.000000, -472.000000)" fill="#D94699" fill-rule="nonzero">
            <g id="Check-box---unchecked" transform="translate(499.000000, 472.000000)">
                <path d="M4,0 L26,0 C28.209139,0 30,1.790861 30,4 L30,26 C30,28.209139 28.209139,30 26,30 L4,30 C1.790861,30 0,28.209139 0,26 L0,4 C0,1.790861 1.790861,0 4,0 Z M4,2 C2.8954305,2 2,2.8954305 2,4 L2,26 C2,27.1045695 2.8954305,28 4,28 L26,28 C27.1045695,28 28,27.1045695 28,26 L28,4 C28,2.8954305 27.1045695,2 26,2 L4,2 Z"></path>
            </g>
        </g>
    </g>
</svg>