<?xml version="1.0" encoding="UTF-8"?>
<svg width="28px" height="28px" viewBox="0 0 28 28" version="1.1" xmlns="http://www.w3.org/2000/svg" xmlns:xlink="http://www.w3.org/1999/xlink">
    <!-- Generator: Sketch 54.1 (76490) - https://sketchapp.com -->
    <title>fee icon</title>
    <desc>Created with Sketch.</desc>
    <g id="Current-design" stroke="none" stroke-width="1" fill="none" fill-rule="evenodd">
        <g id="1.1.1-Registration-calendar" transform="translate(-262.000000, -919.000000)" fill="#E9138C">
            <g id="Register-Form-Copy" transform="translate(231.000000, 592.000000)">
                <g id="Login" transform="translate(30.000000, 25.000000)">
                    <path d="M5,302 L25,302 C27.209139,302 29,303.790861 29,306 L29,326 C29,328.209139 27.209139,330 25,330 L5,330 C2.790861,330 1,328.209139 1,326 L1,306 C1,303.790861 2.790861,302 5,302 Z M15.6469594,322.961848 L15.6469219,322.962035 C17.3344219,322.663198 18.7978069,321.312598 18.9472219,319.550398 C19.1729719,317.262223 17.3725969,315.312523 15.1225969,315.312523 L13.8847969,315.312523 C12.9472969,315.312523 12.1973119,314.487785 12.2353969,313.586923 C12.3100969,312.762223 13.0981969,312.161623 13.9228969,312.161623 L15.3481969,312.161623 C15.8725969,312.161623 16.3223044,312.536623 16.4350969,313.024423 C16.4731819,313.137215 16.5859744,313.250008 16.7353894,313.250008 L18.3481894,313.250008 C18.5356894,313.250008 18.6851044,313.100593 18.6851044,312.913093 C18.5342044,311.300293 17.2217044,310.025885 15.5723044,309.913093 L15.5723044,308.300293 C15.5723044,308.149415 15.4595119,308 15.2720119,308 L13.6592119,308 C13.4717119,308 13.3222969,308.112793 13.3222969,308.300293 L13.3222969,309.913093 C11.3344969,310.175218 9.79641195,312.012118 10.0219969,314.112718 C10.2094969,316.100518 12.0097219,317.562418 14.0341219,317.562418 L15.0844219,317.562418 C16.0600219,317.562418 16.8100144,318.349018 16.6972219,319.324618 C16.6225219,320.149318 15.8344219,320.749918 15.0097219,320.749918 L13.6210594,320.749918 C13.0966594,320.749918 12.6469519,320.374918 12.5341594,319.887118 C12.4960744,319.774325 12.3832819,319.661533 12.2338669,319.661533 L10.6210669,319.661533 C10.4335669,319.661533 10.2841519,319.810948 10.2841519,319.998448 C10.4350519,321.611248 11.7475519,322.885655 13.3969519,322.998448 L13.3969519,324.611248 C13.3969519,324.798748 13.5463669,324.948163 13.7338669,324.948163 L15.3466669,324.948163 C15.4975444,324.948163 15.6469594,324.798748 15.6469594,324.611248 L15.6469594,322.961848 Z" id="fee-icon"></path>
                </g>
            </g>
        </g>
    </g>
</svg>