<?xml version="1.0" encoding="UTF-8"?>
<svg width="24px" height="24px" viewBox="0 0 24 24" version="1.1" xmlns="http://www.w3.org/2000/svg" xmlns:xlink="http://www.w3.org/1999/xlink">
    <!-- Generator: Sketch 55.2 (78181) - https://sketchapp.com -->
    <title>Icons / Search / Inactive</title>
    <desc>Created with Sketch.</desc>
    <g id="Icons-/-Search-/-Inactive" stroke="none" stroke-width="1" fill="none" fill-rule="evenodd">
        <path d="M15.7734375,14.3554688 L20.5,19.0820312 L19.0820312,20.5 L14.3984375,15.7734375 L14.3984375,15.0429688 L14.0976562,14.7851562 C12.9518172,15.7591195 11.6197993,16.2460938 10.1015625,16.2460938 C8.41144988,16.2460938 6.97201115,15.6516987 5.78320312,14.4628906 C4.5943951,13.2740826 4,11.8346439 4,10.1445312 C4,8.45441863 4.5943951,7.00781852 5.78320312,5.8046875 C6.97201115,4.60155648 8.39712711,4 10.0585938,4 C11.7487064,4 13.1881451,4.60155648 14.3769531,5.8046875 C15.5657612,7.00781852 16.1601562,8.45441863 16.1601562,10.1445312 C16.1601562,11.662768 15.673182,12.9947859 14.6992188,14.140625 L15,14.3554688 L15.7734375,14.3554688 Z M7.09375,13.1523438 C7.92448332,13.9544311 8.92707746,14.3554688 10.1015625,14.3554688 C11.2760475,14.3554688 12.2786417,13.9472697 13.109375,13.1308594 C13.9401083,12.314449 14.3554688,11.3190163 14.3554688,10.1445312 C14.3554688,8.97004621 13.9401083,7.96745207 13.109375,7.13671875 C12.2786417,6.30598543 11.2760475,5.890625 10.1015625,5.890625 C8.92707746,5.890625 7.93164471,6.30598543 7.11523438,7.13671875 C6.29882404,7.96745207 5.890625,8.97004621 5.890625,10.1445312 C5.890625,11.3190163 6.29166266,12.3216104 7.09375,13.1523438 Z" id="" fill="#CECECE"></path>
    </g>
</svg>