<?xml version="1.0" encoding="UTF-8"?>
<svg width="24px" height="24px" viewBox="0 0 24 24" version="1.1" xmlns="http://www.w3.org/2000/svg" xmlns:xlink="http://www.w3.org/1999/xlink">
    <!-- Generator: Sketch 55.2 (78181) - https://sketchapp.com -->
    <title>Icons / Location pin / Inactive</title>
    <desc>Created with Sketch.</desc>
    <g id="Icons-/-Location-pin-/-Inactive" stroke="none" stroke-width="1" fill="none" fill-rule="evenodd">
        <path d="M12.402,11.668 C12.8126687,11.668 13.1939982,11.5653344 13.546,11.36 C13.8980018,11.1546656 14.1766656,10.8796684 14.382,10.535 C14.5873344,10.1903316 14.69,9.81266872 14.69,9.402 C14.69,8.99133128 14.5873344,8.61000176 14.382,8.258 C14.1766656,7.90599824 13.8980018,7.62733436 13.546,7.422 C13.1939982,7.21666564 12.8126687,7.114 12.402,7.114 C11.9913313,7.114 11.6136684,7.21666564 11.269,7.422 C10.9243316,7.62733436 10.6493344,7.90599824 10.444,8.258 C10.2386656,8.61000176 10.136,8.99133128 10.136,9.402 C10.136,10.0326698 10.3559978,10.5679978 10.796,11.008 C11.2360022,11.4480022 11.7713302,11.668 12.402,11.668 Z M12.402,3 C13.5753392,3 14.6533284,3.28599714 15.636,3.858 C16.6040048,4.43000286 17.3739971,5.19999516 17.946,6.168 C18.5180029,7.15067158 18.804,8.2286608 18.804,9.402 C18.804,10.2966711 18.5840022,11.3233275 18.144,12.482 C17.7626648,13.4646716 17.23467,14.5279943 16.56,15.672 C16.0026639,16.5813379 15.3646703,17.5273284 14.646,18.51 C14.1473308,19.1993368 13.6193361,19.8739967 13.062,20.534 L12.402,21.304 L11.742,20.534 C11.1846639,19.8739967 10.6566692,19.1993368 10.158,18.51 C9.43932974,17.5273284 8.80133612,16.5813379 8.244,15.672 C7.56932996,14.5279943 7.04133524,13.4646716 6.66,12.482 C6.2199978,11.3233275 6,10.2966711 6,9.402 C6,8.2286608 6.28599714,7.15067158 6.858,6.168 C7.43000286,5.19999516 8.19999516,4.43000286 9.168,3.858 C10.1506716,3.28599714 11.2286608,3 12.402,3 Z" id="" fill="#E8E8E8" fill-rule="nonzero"></path>
    </g>
</svg>