<?xml version="1.0" encoding="UTF-8"?>
<svg width="24px" height="24px" viewBox="0 0 24 24" version="1.1" xmlns="http://www.w3.org/2000/svg" xmlns:xlink="http://www.w3.org/1999/xlink">
    <!-- Generator: Sketch 55.2 (78181) - https://sketchapp.com -->
    <title>Icons / Location pin</title>
    <desc>Created with Sketch.</desc>
    <g id="Icons-/-Location-pin" stroke="none" stroke-width="1" fill="none" fill-rule="evenodd">
        <path d="M12.238,12.092 C12.5740017,12.092 12.8859986,12.0080008 13.174,11.84 C13.4620014,11.6719992 13.6899992,11.4470014 13.858,11.165 C14.0260008,10.8829986 14.11,10.5740017 14.11,10.238 C14.11,9.90199832 14.0260008,9.59000144 13.858,9.302 C13.6899992,9.01399856 13.4620014,8.78600084 13.174,8.618 C12.8859986,8.44999916 12.5740017,8.366 12.238,8.366 C11.9019983,8.366 11.5930014,8.44999916 11.311,8.618 C11.0289986,8.78600084 10.8040008,9.01399856 10.636,9.302 C10.4679992,9.59000144 10.384,9.90199832 10.384,10.238 C10.384,10.7540026 10.5639982,11.1919982 10.924,11.552 C11.2840018,11.9120018 11.7219974,12.092 12.238,12.092 Z M12.238,5 C13.1980048,5 14.079996,5.23399766 14.884,5.702 C15.676004,6.17000234 16.3059977,6.79999604 16.774,7.592 C17.2420023,8.39600402 17.476,9.2779952 17.476,10.238 C17.476,10.9700037 17.2960018,11.8099953 16.936,12.758 C16.6239984,13.562004 16.1920028,14.4319953 15.64,15.368 C15.1839977,16.1120037 14.6620029,16.885996 14.074,17.69 C13.665998,18.2540028 13.2340023,18.8059973 12.778,19.346 L12.238,19.976 L11.698,19.346 C11.2419977,18.8059973 10.810002,18.2540028 10.402,17.69 C9.81399706,16.885996 9.29200228,16.1120037 8.836,15.368 C8.28399724,14.4319953 7.85200156,13.562004 7.54,12.758 C7.1799982,11.8099953 7,10.9700037 7,10.238 C7,9.2779952 7.23399766,8.39600402 7.702,7.592 C8.17000234,6.79999604 8.79999604,6.17000234 9.592,5.702 C10.396004,5.23399766 11.2779952,5 12.238,5 Z" id="" fill="#2D3591"></path>
    </g>
</svg>