<svg id="Layer_1" data-name="Layer 1" xmlns="http://www.w3.org/2000/svg" viewBox="0 0 400 193"><defs><style>.cls-1{fill:none;}.cls-2{fill:#62afdc;}.cls-3{fill:#d8539a;}.cls-4{fill:#4e3b81;}.cls-5{fill:#40174d;}</style></defs><title>Logo_RWK</title><path class="cls-1" d="M186.6,81c-6.67,8.79-12.33,20.32-18.14,32.17-9.33,19-18.89,38.5-33.72,48.43-8.33,12.37-18.29,21.43-31.83,22.53a22.18,22.18,0,0,0,10.17,2.69h.5c24.32-.66,37-26.6,49.34-51.69s25-50.95,49.68-51.38a24.8,24.8,0,0,0-14.43-5.31A27.13,27.13,0,0,0,186.6,81Z"/><path class="cls-1" d="M240.73,101.42C232,83.91,221.46,69.6,204.41,69.6a18.94,18.94,0,0,0-10.12,3c-1.12,1-2.21,2-3.27,3.12a30.77,30.77,0,0,1,7.22-.86c8.28.33,14.83,3.91,20.27,9.5C227.82,86.45,234.88,92.83,240.73,101.42Z"/><path class="cls-1" d="M225,92.67c6,9.28,10.57,21.09,15.06,32.72,7.85,20.37,15.38,39.83,29.44,47-6.91-9.89-12.15-22.69-17.3-35.3C244.49,118.25,237.11,100.2,225,92.67Z"/><path class="cls-1" d="M293.34,169.16c-14.75-.3-24.56-11-32.54-25.06,5.14,12.19,10.52,23.42,17.58,31a29.5,29.5,0,0,0,3.57.22h.82c5-.13,9.66-2.17,14.4-6.49a19.8,19.8,0,0,1-3.42.33Z"/><path class="cls-1" d="M166.23,101.75c-5.08,8.23-9.68,17.9-14.38,27.78-.46,1-.92,1.94-1.39,2.91,4.14-7,7.92-14.76,11.67-22.4C163.49,107.28,164.85,104.5,166.23,101.75Z"/><path class="cls-1" d="M253.84,117.32c9.09,20.7,17.75,40.4,32.64,45.36-14.19-8.14-22.42-28-30.43-47.33C245.37,89.56,235.28,65.2,213.22,65.2c-.3,0-.6,0-.89,0C233.08,70.1,243.62,94.06,253.84,117.32Z"/><path class="cls-2" d="M249,119.45c-2.68-6.1-5.38-12.24-8.27-18-5.85-8.59-12.91-15-22.22-17A53.36,53.36,0,0,1,225,92.67c12.12,7.53,19.5,25.58,27.2,44.44,5.15,12.61,10.39,25.41,17.3,35.3a26.34,26.34,0,0,0,8.89,2.71c-7.06-7.6-12.44-18.83-17.58-31C256.5,136.5,252.72,127.93,249,119.45Z"/><path class="cls-2" d="M97.36,180.55c-18.57-14.32-35.14-50.25-47-76C46.86,97,43.83,90.4,41.12,85.13a2.65,2.65,0,0,0-4.7,2.43c2.66,5.16,5.67,11.69,9.15,19.25,8.53,18.5,18.67,40.48,30.34,57.5C83,173.49,90.26,179.79,97.36,180.55Z"/><path class="cls-2" d="M212.6,83.72c-24.68.43-37.39,26.32-49.68,51.38s-25,51-49.34,51.69h-.5a22.18,22.18,0,0,1-10.17-2.69c-.91.07-1.84.12-2.78.12s-1.62,0-2.45-.08a19.14,19.14,0,0,1-6.07-1.49c6.75,5.87,13.91,9.43,21.46,9.43h.66c27.51-.74,40.94-28.15,53.94-54.65C179.88,112.51,191.42,89,213.11,89a24,24,0,0,1,5.65.9A36.32,36.32,0,0,0,212.6,83.72Z"/><path class="cls-2" d="M273.7,177.8c6.71,7.62,15,12.52,25.86,12.52h.95c13.42-.35,28.8-13.36,40.13-34C359.86,121.39,398.51,31.9,398.9,31a2.64,2.64,0,1,0-4.85-2.09c-.39.9-38.94,90.16-58,124.88-10.27,18.68-24.26,30.94-35.64,31.23a26.58,26.58,0,0,1-18-6.16h-.43A31.45,31.45,0,0,1,273.7,177.8Z"/><path class="cls-2" d="M28.8,60.49,12.94,28.78a2.64,2.64,0,1,0-4.73,2.36L24.07,62.86a2.65,2.65,0,0,0,2.36,1.46,2.65,2.65,0,0,0,2.37-3.83Z"/><path class="cls-3" d="M318.79,143.73c19.72-37,56-121,56.39-121.89A1.76,1.76,0,1,0,372,20.45c-.39.9-39,90.19-58.08,125a150.33,150.33,0,0,1-8.05,13.21l.52-.16C310.36,155.12,314.49,150.23,318.79,143.73Z"/><path class="cls-3" d="M198.24,74.89a30.77,30.77,0,0,0-7.22.86A60.38,60.38,0,0,0,186.6,81a27.13,27.13,0,0,1,11.57-2.56,24.8,24.8,0,0,1,14.43,5.31l.62,0a31,31,0,0,1,5.29.69C213.07,78.8,206.52,75.22,198.24,74.89Z"/><path class="cls-3" d="M151.85,129.53c4.7-9.88,9.3-19.55,14.38-27.78,3.09-6.15,6.28-12.17,9.75-17.69-11.21,10.13-19.35,27.22-27.31,43.95-3.51,7.38-7,14.81-10.86,21.69a89,89,0,0,0,12.65-17.26C150.93,131.47,151.39,130.5,151.85,129.53Z"/><path class="cls-3" d="M75.91,164.31c-12.91-16.77-25.14-43.15-34.35-63-3.65-7.88-7.09-15.32-10-21a1.76,1.76,0,1,0-3.13,1.62c2.91,5.64,6.34,13,10,20.89,14.2,30.64,33.16,71.57,53.25,79.89A96.77,96.77,0,0,1,75.91,164.31Z"/><path class="cls-3" d="M304.49,166.18a23.1,23.1,0,0,1-7.32,2.66c-4.74,4.32-9.4,6.36-14.4,6.49H282a29.5,29.5,0,0,1-3.57-.22,37.74,37.74,0,0,0,4,3.74h.49C290.55,178.66,297.37,174.78,304.49,166.18Z"/><path class="cls-3" d="M134.74,161.57c-1,.69-2.11,1.34-3.2,1.94a48.06,48.06,0,0,1-4.79,2.82c-7.75,9.22-16.94,15.07-28.84,14.29-.18,0-.36-.05-.55-.07a36.17,36.17,0,0,0,5.55,3.55C116.45,183,126.41,173.94,134.74,161.57Z"/><path class="cls-3" d="M240.05,125.39C235.56,113.76,231,102,225,92.67a24,24,0,0,0-6.23-2.78c7.34,9.16,12.59,22.74,18,36.77,8.74,22.65,17.74,46,36.94,51.14a60.86,60.86,0,0,1-4.21-5.39C255.43,165.22,247.9,145.76,240.05,125.39Z"/><path class="cls-4" d="M218.51,84.39a31,31,0,0,0-5.29-.69l-.62,0a36.32,36.32,0,0,1,6.16,6.17A24,24,0,0,1,225,92.67,53.36,53.36,0,0,0,218.51,84.39Z"/><path class="cls-4" d="M100.13,184.22c.94,0,1.87-.05,2.78-.12a36.17,36.17,0,0,1-5.55-3.55c-7.1-.76-14.38-7.06-21.45-16.24a96.77,96.77,0,0,0,15.7,18.34,19.14,19.14,0,0,0,6.07,1.49C98.51,184.19,99.33,184.22,100.13,184.22Z"/><path class="cls-4" d="M278.38,175.12a26.34,26.34,0,0,1-8.89-2.71,60.86,60.86,0,0,0,4.21,5.39,31.45,31.45,0,0,0,8.24,1.07h.43A37.74,37.74,0,0,1,278.38,175.12Z"/><path class="cls-3" d="M3.34,23.88A1.76,1.76,0,1,0,.19,25.46L16.05,57.18a1.77,1.77,0,0,0,1.57,1,1.82,1.82,0,0,0,.79-.18,1.78,1.78,0,0,0,.79-2.37Z"/><path class="cls-3" d="M169,97.51c-.94,1.36-1.86,2.78-2.76,4.24-1.38,2.75-2.74,5.53-4.1,8.29-3.75,7.64-7.53,15.35-11.67,22.4q-1.32,2.76-2.65,5.52c5.47-8.64,10.28-18.44,15-28.13C164.89,105.64,166.93,101.49,169,97.51Z"/><path class="cls-3" d="M191,75.75c1.06-1.11,2.15-2.16,3.27-3.12a28.35,28.35,0,0,0-4.44,3.42Z"/><path class="cls-3" d="M168.46,113.14c5.81-11.85,11.47-23.38,18.14-32.17-.72.34-1.42.71-2.11,1.1-6.05,8-11.4,18.86-16.9,30.09-8.72,17.79-18.2,37.09-32.27,48.55l-.58.86C149.57,151.64,159.13,132.16,168.46,113.14Z"/><path class="cls-3" d="M304.55,166.15C317,164,330.79,151.42,341.41,132.1c19.25-35,57.92-126.28,58.31-127.2a3.52,3.52,0,0,0-6.49-2.75c-.39.92-38.92,91.87-58,126.55a97.66,97.66,0,0,1-10.44,15.45C317.85,155.18,311.19,162.43,304.55,166.15Z"/><path class="cls-3" d="M37.56,62.85A2.64,2.64,0,0,1,41.12,64c3.22,6.25,6.82,14.3,11,23.62,13.83,31,34.73,77.72,54.55,78h.67c11.55,0,20.69-4.78,28.4-12.3.7-1.19,1.4-2.41,2.09-3.65-6.71,6.84-14.55,11.27-24.25,11.54-24.39.71-47.27-48.89-62.39-81.68-3.51-7.63-6.55-14.22-9.27-19.5a3.53,3.53,0,1,0-6.27,3.23c.2.38.4.78.6,1.18A2.66,2.66,0,0,1,37.56,62.85Z"/><path class="cls-3" d="M204.41,64.32a34.74,34.74,0,0,1,7.92.91c.29,0,.59,0,.89,0,22.06,0,32.15,24.36,42.83,50.15,8,19.35,16.24,39.19,30.43,47.33a23.24,23.24,0,0,0,7,1.2h.29q5.67,0,11.65-4.64l.44-.62a17,17,0,0,1-5.31.85c-18.71-.38-28.05-22.94-37.95-46.82-11.1-26.79-22.57-54.5-49.34-54.5-16.65,0-27.95,11.13-37.24,25.91.51-.46,1-.91,1.55-1.34C184.83,71.83,193.18,64.32,204.41,64.32Z"/><path class="cls-3" d="M169,97.51a155.76,155.76,0,0,1,8.54-14.79c-.52.43-1,.88-1.55,1.34-3.47,5.52-6.66,11.54-9.75,17.69C167.13,100.29,168.05,98.87,169,97.51Z"/><path class="cls-3" d="M147.81,138q1.33-2.76,2.65-5.52a89,89,0,0,1-12.65,17.26c-.69,1.24-1.39,2.46-2.09,3.65A84.83,84.83,0,0,0,147.81,138Z"/><path class="cls-3" d="M131.54,163.51c1.09-.6,2.16-1.25,3.2-1.94l.58-.86C134.09,161.7,132.83,162.64,131.54,163.51Z"/><path class="cls-3" d="M306.34,158.46l-.52.16-.44.62Z"/><path class="cls-3" d="M184.49,82.07c.69-.39,1.39-.76,2.11-1.1A60.38,60.38,0,0,1,191,75.75l-1.17.3A49,49,0,0,0,184.49,82.07Z"/><path class="cls-3" d="M26.8,50.92A3.55,3.55,0,0,0,30,52.87a3.4,3.4,0,0,0,1.57-.38,3.53,3.53,0,0,0,1.58-4.73L17.25,16.05A3.52,3.52,0,1,0,11,19.2Z"/><path class="cls-2" d="M299.57,166.48a28.56,28.56,0,0,1-13.09-3.8c-14.89-5-23.55-24.66-32.64-45.36-10.22-23.26-20.76-47.22-41.51-52.09-7,.22-12.84,2.94-18,7.4a18.94,18.94,0,0,1,10.12-3c17.05,0,27.57,14.31,36.32,31.82,6.47,9.5,11.45,21.69,16.36,33.69q1.85,4.54,3.71,9c8,14.08,17.79,24.76,32.54,25.06h.41a19.8,19.8,0,0,0,3.42-.33C298,168.11,298.77,167.34,299.57,166.48Z"/><path class="cls-2" d="M113.75,168.28h-.68c-28.75,0-51.59-49.54-68.3-85.78-3.22-7-6-13.09-8.54-18a2.63,2.63,0,0,0,.19,1.94c3.15,6.13,6.89,14.49,10.85,23.35,16.09,36,36.11,80.8,59.3,81.17h.76a42.19,42.19,0,0,0,19.42-4.6l.73-.89A38.62,38.62,0,0,1,113.75,168.28Z"/><path class="cls-2" d="M304.49,166.18l.06,0h0Z"/><path class="cls-2" d="M311.87,155.8a54.78,54.78,0,0,0,12.93-11.65c1.74-2.76,3.49-5.72,5.27-9C349.3,100.24,388,9,388.34,8.08A2.64,2.64,0,0,0,383.47,6c-.39.92-38.94,91.91-58,126.63-2.26,4.11-4.48,7.79-6.65,11.08L317,147.11C315.22,150.27,313.53,153.15,311.87,155.8Z"/><path class="cls-2" d="M260.8,144.1q-1.87-4.44-3.71-9c-4.91-12-9.89-24.19-16.36-33.69,2.89,5.79,5.59,11.93,8.27,18C252.72,127.93,256.5,136.5,260.8,144.1Z"/><path class="cls-4" d="M300.78,166.52h-.41l-.8,0c-.8.86-1.6,1.63-2.4,2.36a23.1,23.1,0,0,0,7.32-2.66l0,0A21.7,21.7,0,0,1,300.78,166.52Z"/><path class="cls-4" d="M306.34,158.46a27.85,27.85,0,0,0,5.53-2.66c1.66-2.65,3.35-5.53,5.09-8.69l1.83-3.38C314.49,150.23,310.36,155.12,306.34,158.46Z"/><path class="cls-2" d="M127.48,165.44l-.73.89a48.06,48.06,0,0,0,4.79-2.82A40.73,40.73,0,0,1,127.48,165.44Z"/><path class="cls-4" d="M305.38,159.24q-6,4.63-11.65,4.64h-.29a23.24,23.24,0,0,1-7-1.2,28.56,28.56,0,0,0,13.09,3.8A67.12,67.12,0,0,0,305.38,159.24Z"/><path class="cls-4" d="M167.59,112.16c5.5-11.23,10.85-22.13,16.9-30.09-5.86,3.34-10.9,8.75-15.5,15.44-2.06,4-4.1,8.13-6.15,12.32-4.75,9.69-9.56,19.49-15,28.13a204.8,204.8,0,0,1-12.49,22.75C149.39,149.25,158.87,130,167.59,112.16Z"/><path class="cls-4" d="M311.87,155.8a97.51,97.51,0,0,1-7.36,10.36h0c6.64-3.72,13.3-11,20.25-22A54.78,54.78,0,0,1,311.87,155.8Z"/><path class="cls-4" d="M194.29,72.63c5.2-4.46,11.09-7.18,18-7.4a34.74,34.74,0,0,0-7.92-.91c-11.23,0-19.58,7.51-26.88,18.4a33.92,33.92,0,0,1,12.32-6.67A28.35,28.35,0,0,1,194.29,72.63Z"/><path class="cls-4" d="M113.07,168.29h.68a38.62,38.62,0,0,0,13.73-2.84,99.15,99.15,0,0,0,8.24-12.09c-7.71,7.52-16.85,12.3-28.4,12.3h-.67c-19.82-.31-40.72-47.08-54.55-78-4.16-9.32-7.76-17.37-11-23.62a2.64,2.64,0,0,0-4.89.48c2.51,5,5.32,11,8.54,18C61.48,118.75,84.32,168.29,113.07,168.29Z"/><path class="cls-5" d="M147.81,138a84.83,84.83,0,0,1-12.09,15.39,99.15,99.15,0,0,1-8.24,12.09,40.73,40.73,0,0,0,4.06-1.93c1.29-.87,2.55-1.81,3.78-2.8A204.8,204.8,0,0,0,147.81,138Z"/><path class="cls-5" d="M184.49,82.07a49,49,0,0,1,5.36-6,33.92,33.92,0,0,0-12.32,6.67A155.76,155.76,0,0,0,169,97.51C173.59,90.82,178.63,85.41,184.49,82.07Z"/><path class="cls-5" d="M300.37,166.52h.41a21.7,21.7,0,0,0,3.73-.36,97.51,97.51,0,0,0,7.36-10.36,27.85,27.85,0,0,1-5.53,2.66l-1,.78a67.12,67.12,0,0,1-5.81,7.24Z"/></svg>