<?xml version="1.0" encoding="UTF-8"?>
<svg width="11px" height="16px" viewBox="0 0 11 16" version="1.1" xmlns="http://www.w3.org/2000/svg" xmlns:xlink="http://www.w3.org/1999/xlink">
    <!-- Generator: Sketch 55.1 (78136) - https://sketchapp.com -->
    <title></title>
    <desc>Created with Sketch.</desc>
    <g id="Additional-pages" stroke="none" stroke-width="1" fill="none" fill-rule="evenodd">
        <g id="1.0-360-Video---Play" transform="translate(-1158.000000, -751.000000)" fill="#2D3591" fill-rule="nonzero">
            <path d="M1163.762,758.315365 C1164.08273,758.315365 1164.38056,758.231232 1164.65547,758.062962 C1164.93039,757.894691 1165.14802,757.669333 1165.30839,757.38688 C1165.46876,757.104426 1165.54894,756.794934 1165.54894,756.458394 C1165.54894,756.121854 1165.46876,755.809357 1165.30839,755.520894 C1165.14802,755.232431 1164.93039,755.004068 1164.65547,754.835798 C1164.38056,754.667528 1164.08273,754.583394 1163.762,754.583394 C1163.44127,754.583394 1163.14631,754.667528 1162.87712,754.835798 C1162.60793,755.004068 1162.39316,755.232431 1162.23279,755.520894 C1162.07242,755.809357 1161.99224,756.121854 1161.99224,756.458394 C1161.99224,756.975224 1162.16406,757.413921 1162.5077,757.7745 C1162.85135,758.135079 1163.26944,758.315365 1163.762,758.315365 Z M1163.762,751.212 C1164.67838,751.212 1165.5203,751.446373 1166.28777,751.915125 C1167.04379,752.383877 1167.64516,753.014881 1168.0919,753.808154 C1168.53863,754.613446 1168.762,755.496851 1168.762,756.458394 C1168.762,757.191571 1168.59018,758.032909 1168.24654,758.982433 C1167.94871,759.787725 1167.53634,760.659111 1167.00942,761.596615 C1166.57414,762.341811 1166.07586,763.117044 1165.51458,763.922337 C1165.12511,764.487243 1164.71275,765.040122 1164.27746,765.58099 L1163.762,766.212 L1163.24654,765.58099 C1162.81125,765.040122 1162.39889,764.487243 1162.00942,763.922337 C1161.44814,763.117044 1160.94986,762.341811 1160.51458,761.596615 C1159.98766,760.659111 1159.57529,759.787725 1159.27746,758.982433 C1158.93382,758.032909 1158.762,757.191571 1158.762,756.458394 C1158.762,755.496851 1158.98537,754.613446 1159.4321,753.808154 C1159.87884,753.014881 1160.48021,752.383877 1161.23623,751.915125 C1162.0037,751.446373 1162.84562,751.212 1163.762,751.212 Z" id=""></path>
        </g>
    </g>
</svg>