<?xml version="1.0" encoding="UTF-8"?>
<svg width="33px" height="33px" viewBox="0 0 33 33" version="1.1" xmlns="http://www.w3.org/2000/svg" xmlns:xlink="http://www.w3.org/1999/xlink">
    <!-- Generator: sketchtool 55 (78076) - https://sketchapp.com -->
    <title>E05B62BC-EF56-49FD-BD7F-C2DB8A6ACBA8</title>
    <desc>Created with sketchtool.</desc>
    <g id="Additional-pages" stroke="none" stroke-width="1" fill="none" fill-rule="evenodd">
        <g id="1.0-Registered-user---360-videos" transform="translate(-188.000000, -224.000000)" fill="#FFFFFF" fill-rule="nonzero">
            <g id="Group-4-Copy-7" transform="translate(128.000000, 185.000000)">
                <g id="Group-3" transform="translate(60.000000, 39.000000)">
                    <path d="M16.5,30 C18.9251618,30 21.1886122,29.3802457 23.2904192,28.1407186 C25.3383336,26.9550839 26.9550839,25.3383336 28.1407186,23.2904192 C29.3802457,21.1886122 30,18.9251618 30,16.5 C30,14.0748382 29.3802457,11.8113878 28.1407186,9.70958084 C26.9550839,7.66166641 25.3383336,6.04491611 23.2904192,4.85928144 C21.1886122,3.61975428 18.9251618,3 16.5,3 C14.0748382,3 11.8113878,3.61975428 9.70958084,4.85928144 C7.66166641,6.04491611 6.04491611,7.66166641 4.85928144,9.70958084 C3.61975428,11.8113878 3,14.0748382 3,16.5 C3,18.9251618 3.61975428,21.1886122 4.85928144,23.2904192 C6.04491611,25.3383336 7.66166641,26.9550839 9.70958084,28.1407186 C11.8113878,29.3802457 14.0748382,30 16.5,30 Z M16.5,0 C19.5144381,0 22.3040737,0.753598233 24.8689904,2.26081731 C27.3545797,3.68870906 29.3112909,5.64542026 30.7391827,8.13100962 C32.2464018,10.6959263 33,13.4855619 33,16.5 C33,19.5144381 32.2464018,22.3040737 30.7391827,24.8689904 C29.3112909,27.3545797 27.3545797,29.3112909 24.8689904,30.7391827 C22.3040737,32.2464018 19.5144381,33 16.5,33 C13.4855619,33 10.6959263,32.2464018 8.13100962,30.7391827 C5.64542026,29.2848485 3.68870906,27.3149163 2.26081731,24.8293269 C0.753598233,22.2644103 0,19.4879957 0,16.5 C0,13.5120043 0.753598233,10.7355897 2.26081731,8.17067308 C3.7151515,5.68508373 5.68508373,3.7151515 8.17067308,2.26081731 C10.7355897,0.753598233 13.5120043,0 16.5,0 Z M13,24 L13,9 L23,16.52 L13,24 Z" id="-copy-2"></path>
                </g>
            </g>
        </g>
    </g>
</svg>