<?xml version="1.0" encoding="UTF-8"?>
<svg width="18px" height="19px" viewBox="0 0 18 19" version="1.1" xmlns="http://www.w3.org/2000/svg" xmlns:xlink="http://www.w3.org/1999/xlink">
    <!-- Generator: Sketch 54.1 (76490) - https://sketchapp.com -->
    <title></title>
    <desc>Created with Sketch.</desc>
    <g id="Current-design" stroke="none" stroke-width="1" fill="none" fill-rule="evenodd">
        <path d="M8.91440006,12.364 C9.48640292,12.364 10.0217309,12.2173348 10.5204001,11.924 C11.0190692,11.6306652 11.4150653,11.2383358 11.7084001,10.747 C12.0017349,10.2556642 12.1484001,9.72400286 12.1484001,9.152 C12.1484001,8.57999714 12.0017349,8.04466916 11.7084001,7.546 C11.4150653,7.04733084 11.0190692,6.6513348 10.5204001,6.358 C10.0217309,6.0646652 9.48640292,5.918 8.91440006,5.918 C8.3423972,5.918 7.81073585,6.0646652 7.31940006,6.358 C6.82806427,6.6513348 6.43573486,7.04733084 6.14240006,7.546 C5.84906526,8.04466916 5.70240006,8.57999714 5.70240006,9.152 C5.70240006,9.72400286 5.84906526,10.2556642 6.14240006,10.747 C6.43573486,11.2383358 6.82806427,11.6306652 7.31940006,11.924 C7.81073585,12.2173348 8.3423972,12.364 8.91440006,12.364 Z M15.7564001,10.054 L17.6704001,11.55 C17.7584005,11.6233337 17.8097333,11.7186661 17.8244001,11.836 C17.8390668,11.9533339 17.817067,12.0633328 17.7584001,12.166 L15.9104001,15.334 C15.8517331,15.4366672 15.7747339,15.5026665 15.6794001,15.532 C15.5840662,15.5613335 15.477734,15.5540002 15.3604001,15.51 L13.0944001,14.608 C12.5077305,15.0333355 11.987069,15.3339991 11.5324001,15.51 L11.2024001,17.908 C11.1730666,18.0253339 11.1180671,18.1206663 11.0374001,18.194 C10.956733,18.2673337 10.8650672,18.304 10.7624001,18.304 L7.06640006,18.304 C6.96373288,18.304 6.87206713,18.2673337 6.79140006,18.194 C6.71073299,18.1206663 6.6630668,18.0253339 6.64840006,17.908 L6.29640006,15.51 C5.68039698,15.2606654 5.16706878,14.9600018 4.75640006,14.608 L2.46840006,15.51 C2.23373222,15.6126672 2.05040072,15.5540011 1.91840006,15.334 L0.0704000563,12.166 C0.0117330963,12.0633328 -0.0102666837,11.9533339 0.00440005632,11.836 C0.0190667963,11.7186661 0.0703996163,11.6233337 0.158400056,11.55 L2.09440006,10.054 C2.06506658,9.84866564 2.05040006,9.54800198 2.05040006,9.152 C2.05040006,8.75599802 2.06506658,8.45533436 2.09440006,8.25 L0.158400056,6.754 C0.0703996163,6.6806663 0.0190667963,6.58533392 0.00440005632,6.468 C-0.0102666837,6.35066608 0.0117330963,6.24066718 0.0704000563,6.138 L1.91840006,2.97 C2.05040072,2.7499989 2.23373222,2.69133282 2.46840006,2.794 L4.75640006,3.696 C5.2844027,3.29999802 5.7977309,2.99933436 6.29640006,2.794 L6.64840006,0.396 C6.6630668,0.27866608 6.71073299,0.1833337 6.79140006,0.11 C6.87206713,0.0366663 6.96373288,0 7.06640006,0 L10.7624001,0 C10.8650672,0 10.956733,0.0366663 11.0374001,0.11 C11.1180671,0.1833337 11.1730666,0.27866608 11.2024001,0.396 L11.5324001,2.794 C12.1044029,3.0140011 12.6250644,3.31466476 13.0944001,3.696 L15.3604001,2.794 C15.477734,2.74999978 15.5840662,2.74266652 15.6794001,2.772 C15.7747339,2.80133348 15.8517331,2.86733282 15.9104001,2.97 L17.7584001,6.138 C17.817067,6.24066718 17.8390668,6.35066608 17.8244001,6.468 C17.8097333,6.58533392 17.7584005,6.6806663 17.6704001,6.754 L15.7564001,8.25 C15.7857335,8.45533436 15.8004001,8.75599802 15.8004001,9.152 C15.8004001,9.54800198 15.7857335,9.84866564 15.7564001,10.054 Z" id="" fill="#2D3591" fill-rule="nonzero"></path>
    </g>
</svg>