<?xml version="1.0" encoding="UTF-8"?>
<svg width="30px" height="30px" viewBox="0 0 30 30" version="1.1" xmlns="http://www.w3.org/2000/svg" xmlns:xlink="http://www.w3.org/1999/xlink">
    <!-- Generator: Sketch 55 (78076) - https://sketchapp.com -->
    <title>shopping-cart-line</title>
    <desc>Created with Sketch.</desc>
    <g id="Additional-pages" stroke="none" stroke-width="1" fill="none" fill-rule="evenodd">
        <g id="1.0-Registered-user---360-videos" transform="translate(-190.000000, -274.000000)">
            <g id="Group-4-Copy-7" transform="translate(128.000000, 185.000000)">
                <g id="Group-2" transform="translate(60.000000, 87.000000)">
                    <g id="shopping-cart-line">
                        <polygon id="Path" points="0 0 33 0 33 33 0 33"></polygon>
                        <path d="M5.5,22 L5.5,5.5 L2.75,5.5 L2.75,2.75 L6.875,2.75 C7.63439153,2.75 8.25,3.36560847 8.25,4.125 L8.25,20.625 L25.35225,20.625 L28.10225,9.625 L11,9.625 L11,6.875 L29.865,6.875 C30.2885203,6.87501113 30.6884047,7.07019512 30.94896,7.40408188 C31.2095152,7.73796865 31.3016654,8.17329922 31.19875,8.584125 L27.76125,22.334125 C27.6079938,22.9459052 27.0581842,23.3749834 26.4275,23.375 L6.875,23.375 C6.11560847,23.375 5.5,22.7593915 5.5,22 L5.5,22 Z M8.25,31.625 C6.73121694,31.625 5.5,30.3937831 5.5,28.875 C5.5,27.3562169 6.73121694,26.125 8.25,26.125 C9.76878306,26.125 11,27.3562169 11,28.875 C11,30.3937831 9.76878306,31.625 8.25,31.625 Z M24.75,31.625 C23.2312169,31.625 22,30.3937831 22,28.875 C22,27.3562169 23.2312169,26.125 24.75,26.125 C26.2687831,26.125 27.5,27.3562169 27.5,28.875 C27.5,30.3937831 26.2687831,31.625 24.75,31.625 Z" id="Shape" fill="#FFFFFF" fill-rule="nonzero"></path>
                    </g>
                </g>
            </g>
        </g>
    </g>
</svg>